<svg width="144" height="115" viewBox="0 0 144 115" fill="none" xmlns="http://www.w3.org/2000/svg">
<path d="M5 27.5L63.7367 66.95C66.1834 68.5946 69.0587 69.4722 72 69.4722C74.9413 69.4722 77.8166 68.5946 80.2633 66.95L139 27.5M19.8889 110H124.111C128.06 110 131.847 108.42 134.639 105.607C137.431 102.794 139 98.9782 139 95V20C139 16.0218 137.431 12.2064 134.639 9.3934C131.847 6.58035 128.06 5 124.111 5H19.8889C15.9401 5 12.1531 6.58035 9.36085 9.3934C6.56865 12.2064 5 16.0218 5 20V95C5 98.9782 6.56865 102.794 9.36085 105.607C12.1531 108.42 15.9401 110 19.8889 110Z" stroke="#923CFF" stroke-width="10" stroke-linecap="round" stroke-linejoin="round"/>
</svg>
