<svg width="17" height="17" viewBox="0 0 17 17" fill="none" xmlns="http://www.w3.org/2000/svg">
<path d="M0.520294 1.27478C0.520294 1.00956 0.625651 0.75521 0.813187 0.567673C1.00072 0.380137 1.25508 0.27478 1.52029 0.27478H3.67329C3.91 0.274889 4.13899 0.358961 4.31954 0.51204C4.50008 0.665119 4.62047 0.877279 4.65929 1.11078L5.39929 5.54578C5.43465 5.757 5.40127 5.97399 5.30406 6.16481C5.20685 6.35563 5.05094 6.51021 4.85929 6.60578L3.31129 7.37878C3.8664 8.75443 4.69313 10.0041 5.74207 11.053C6.79101 12.1019 8.04064 12.9287 9.41629 13.4838L10.1903 11.9358C10.2858 11.7443 10.4402 11.5885 10.6308 11.4913C10.8215 11.3941 11.0382 11.3607 11.2493 11.3958L15.6843 12.1358C15.9178 12.1746 16.13 12.295 16.283 12.4755C16.4361 12.6561 16.5202 12.8851 16.5203 13.1218V15.2748C16.5203 15.54 16.4149 15.7944 16.2274 15.9819C16.0399 16.1694 15.7855 16.2748 15.5203 16.2748H13.5203C6.34029 16.2748 0.520294 10.4548 0.520294 3.27478V1.27478Z" fill="black"/>
</svg>
